# xmcd
#
# Track frame offsets:
#	150
#	15150
#	23625
#	38775
#	68625
#	91125
#	99900
#	119025
#
# Disc length: 1899 seconds
#
# Revision: 1
# Processed by: cddbd v1.4PL0 Copyright (c) Steve Scherf et al.
# Submitted via: dBpowerAMP V4.0
#
DISCID=52076908
DTITLE=Ten Years After - Ssssh
DYEAR=1969
DGENRE=Blues
TTITLE0=Bad Scene
TTITLE1=Two Time Mama
TTITLE2=Stoned Woman
TTITLE3=Good Morning Little Schoolgirl
TTITLE4=If You SHould Love Me
TTITLE5=I Don't Know That You Don't Know My Name
TTITLE6=The Stoop
TTITLE7=I Woke Up This Morning
EXTD=
EXTT0=
EXTT1=
EXTT2=
EXTT3=
EXTT4=
EXTT5=
EXTT6=
EXTT7=
PLAYORDER=
